<svg xmlns="http://www.w3.org/2000/svg" width="20" height="23" viewBox="0 0 20 23">
  <defs>
    <style>
      .cls-1 {
        fill: #e25050;
        fill-rule: evenodd;
      }
    </style>
  </defs>
  <path id="clipboard.svg" class="cls-1" d="M702.482,854.969h14.824a1.484,1.484,0,0,1,1.482,1.485v16.33a1.484,1.484,0,0,1-1.482,1.485H702.482A1.483,1.483,0,0,1,701,872.784v-16.33A1.483,1.483,0,0,1,702.482,854.969Zm14.082,9.65a5.939,5.939,0,1,1-5.929,5.938A5.934,5.934,0,0,1,716.564,864.619Zm0,1.491a4.448,4.448,0,1,1-4.44,4.447A4.444,4.444,0,0,1,716.564,866.11Zm2.719,4.1-2.843,2.373a0.846,0.846,0,0,1-.331.158,0.657,0.657,0,0,1-.224.036,0.89,0.89,0,0,1-.582-0.194,0.618,0.618,0,0,1-.2-0.337l-0.581-.581a0.653,0.653,0,0,1,.923-0.925l0.424,0.424,2.28-1.9a0.921,0.921,0,0,1,1.137,0A0.6,0.6,0,0,1,719.283,870.206Zm-12.477-16.722h6.176a0.985,0.985,0,0,1,.618,1.114v2.227a0.984,0.984,0,0,1-.618,1.113h-6.176a0.983,0.983,0,0,1-.618-1.113V854.6A0.984,0.984,0,0,1,706.806,853.484Zm5.311,3.712H707.67a0.742,0.742,0,0,1-.741-0.742v-1.485a0.742,0.742,0,0,1,.741-0.743h0.045a1.562,1.562,0,0,1-.045-0.37,2.26,2.26,0,0,1,4.447,0,1.512,1.512,0,0,1-.045.37h0.045a0.742,0.742,0,0,1,.741.743v1.485A0.742,0.742,0,0,1,712.117,857.2Zm-2.964-3.712h1.482v1.485h-1.482v-1.485Z" transform="translate(-701 -852)"/>
</svg>
