<svg xmlns="http://www.w3.org/2000/svg" width="16" height="22" viewBox="0 0 16 22">
  <defs>
    <style>
      .cls-1 {
        fill: #e25050;
        fill-rule: evenodd;
      }
    </style>
  </defs>
  <path id="cup.svg" class="cls-1" d="M1316.97,857.354H1301l0.02-1.709h1.27l2.7-2.645h8.1l2.65,2.645h1.27Zm-6.6-2.591h-2.66v0.882h2.66v-0.882Zm5.18,9.7h-3.01a3.974,3.974,0,0,0-7.08,0h-2.94l-0.58-6.173h14.2Zm-8.73,1.763a2.22,2.22,0,1,1,2.22,2.205A2.216,2.216,0,0,1,1306.82,866.226Zm2.18,4a3.979,3.979,0,0,0,3.6-2.278h2.61l-0.68,7.036H1303.5l-0.66-7.036h2.56A3.99,3.99,0,0,0,1309,870.231Z" transform="translate(-1301 -853)"/>
</svg>
