<svg xmlns="http://www.w3.org/2000/svg" width="19" height="23" viewBox="0 0 19 23">
  <defs>
    <style>
      .cls-1 {
        fill: #e25050;
        fill-rule: evenodd;
      }
    </style>
  </defs>
  <path id="group.svg" class="cls-1" d="M1616.2,860.66a3.064,3.064,0,1,1,3.04-3.064A3.052,3.052,0,0,1,1616.2,860.66Zm3.8,1.653-0.6,5.4-1.68,1.385v4.6a3.9,3.9,0,0,1-1.9.766,3.845,3.845,0,0,1-1.9-.766v-4.6l-1.52-1.534-0.76-5.366a16.8,16.8,0,0,1,4.18-.767A15.017,15.017,0,0,1,1620,862.313Zm-12.92,6.787v4.6a3.9,3.9,0,0,1-1.9.766,3.845,3.845,0,0,1-1.9-.766v-4.6l-1.52-1.534L1601,862.2a16.8,16.8,0,0,1,4.18-.767,15.017,15.017,0,0,1,4.18.88l-0.6,5.4Zm-1.52-8.44a3.064,3.064,0,1,1,3.04-3.064A3.052,3.052,0,0,1,1605.56,860.66Zm5.32-8.427a4.6,4.6,0,1,1-4.56,4.6A4.579,4.579,0,0,1,1610.88,852.233Zm-6.08,9.2a24.482,24.482,0,0,1,12.16,0l-0.76,6.9-2.28,1.533L1613.16,876a4.114,4.114,0,0,1-2.28.766,4.034,4.034,0,0,1-2.28-.766l-0.76-6.134-2.28-1.533Zm0.76,0.767a26.6,26.6,0,0,1,5.32-.767,26.882,26.882,0,0,1,5.32.767l-0.76,6.133-2.28,1.533v5.367a4.841,4.841,0,0,1-2.28.767,4.739,4.739,0,0,1-2.28-.767v-5.367l-2.28-1.533Zm5.32-9.2a3.833,3.833,0,1,1-3.8,3.833A3.816,3.816,0,0,1,1610.88,853Z" transform="translate(-1601 -853)"/>
</svg>
